<svg xmlns="http://www.w3.org/2000/svg" viewBox="0 0 60.88 60.6"><defs><style>.cls-1{isolation:isolate;}.cls-2{fill:#f8e659;}.cls-3{fill:#f1db42;}.cls-4,.cls-7{fill:#65a18f;}.cls-5{fill:#aad865;}.cls-6{fill:#8dc440;}.cls-7{opacity:0.5;mix-blend-mode:multiply;}</style></defs><title>Recurso 24</title><g class="cls-1"><g id="Capa_2" data-name="Capa 2"><g id="Layer_1" data-name="Layer 1"><path class="cls-2" d="M45.7,30.16l-1.5-1.82a.69.69,0,0,0-1-.1L32,37.37V23.12a.72.72,0,0,0-.72-.72H28.93a.71.71,0,0,0-.7.72v16.1L17.81,27.1a.72.72,0,0,0-1-.07L15,28.57a.72.72,0,0,0-.07,1l12.88,15,.1.11h0l.31.36V56.31a.71.71,0,0,0,.7.72h2.36a.73.73,0,0,0,.72-.72V42.26L45.59,31.17A.73.73,0,0,0,45.7,30.16Z"/><path class="cls-3" d="M45.59,31.17,32,42.26V56.31a.73.73,0,0,1-.72.72h-.85V22.4h.85a.72.72,0,0,1,.72.72V37.37L43.2,28.24a.69.69,0,0,1,1,.1l1.5,1.82A.73.73,0,0,1,45.59,31.17Z"/><path class="cls-4" d="M60.62,57.13a3.47,3.47,0,0,1-3.48,3.47H3.47A3.45,3.45,0,0,1,0,57.13a3.47,3.47,0,0,1,.15-1l.15-.36c.1-.19.19-.38.29-.55l.05-.07A12.12,12.12,0,0,1,19,51.73a13.8,13.8,0,0,1,22.57,0,12.13,12.13,0,0,1,18.6,3.74l.18.38A3.63,3.63,0,0,1,60.62,57.13Z"/><path class="cls-5" d="M30.41,0C25.64,0,21.8,9.33,21.8,17S27,27.87,30.43,27.84,38.82,24.7,38.81,17,35.15,0,30.41,0Z"/><path class="cls-6" d="M30.43,27.84,30.41,0c4.74,0,8.4,9.32,8.4,17S33.85,27.83,30.43,27.84Z"/><path class="cls-5" d="M60,16.06c-3-3.69-12.68-.64-18.59,4.29s-5,10.91-2.78,13.56,7.78,4.43,13.69-.51S63,19.71,60,16.06Z"/><path class="cls-6" d="M38.58,33.91,60,16.06c3,3.65-1.78,12.41-7.68,17.34S40.79,36.53,38.58,33.91Z"/><path class="cls-5" d="M19,19.29C14.05,13.38,5.29,8.58,1.63,11.6S1,24.29,5.93,30.19s10.91,5,13.55,2.78S23.91,25.19,19,19.29Z"/><path class="cls-6" d="M19.48,33,1.63,11.6c3.66-3,12.42,1.78,17.35,7.69S22.1,30.77,19.48,33Z"/><path class="cls-7" d="M60.2,55.48a12.13,12.13,0,0,0-18.6-3.74,13.76,13.76,0,0,0-11.29-5.86h0V60.6H57.14a3.47,3.47,0,0,0,3.48-3.47,3.63,3.63,0,0,0-.24-1.27Z"/></g></g></g></svg>