<?xml version="1.0" encoding="utf-8"?>
<!-- Generator: Adobe Illustrator 23.0.1, SVG Export Plug-In . SVG Version: 6.00 Build 0)  -->
<svg version="1.1" id="Capa_1" xmlns="http://www.w3.org/2000/svg" xmlns:xlink="http://www.w3.org/1999/xlink" x="0px" y="0px"
	 viewBox="0 0 283.46 283.46" style="enable-background:new 0 0 283.46 283.46;" xml:space="preserve">
<style type="text/css">
	.st0{fill-rule:evenodd;clip-rule:evenodd;fill:#88B091;stroke:#3D3D3D;stroke-width:3.234;stroke-miterlimit:10;}
	.st1{fill-rule:evenodd;clip-rule:evenodd;fill:#719177;}
</style>
<path class="st0" d="M213.25,139.63c0-61.25-73.15-132.14-73.15-132.14S66.96,78.38,66.96,139.63c0,57.98,39.85,86.52,68.42,89.4
	v42.67c-0.04,2.61,2.05,4.75,4.65,4.79c2.61,0.04,4.75-2.05,4.79-4.65c0-0.05,0-0.09,0-0.13v-42.67
	C173.4,226.16,213.25,197.62,213.25,139.63z"/>
<path class="st1" d="M176.58,152.86c-1.81-1.88-4.79-1.94-6.67-0.14c-0.05,0.04-0.09,0.09-0.14,0.14l-26.93,26.92V152.8
	c0.2-0.14,0.43-0.22,0.61-0.4l30.64-30.62c1.88-1.81,1.94-4.79,0.14-6.67c-1.81-1.88-4.79-1.94-6.67-0.14
	c-0.05,0.04-0.09,0.09-0.14,0.14l-24.57,24.56v-26.97c0.2-0.14,0.43-0.22,0.61-0.4l25.92-25.9c1.88-1.81,1.94-4.79,0.14-6.67
	c-1.81-1.88-4.79-1.94-6.67-0.14c-0.05,0.04-0.09,0.09-0.14,0.14l-19.85,19.84V49.99c0.02-2.58-1.18-4.71-2.69-4.75
	c-0.03,0-0.06,0-0.09,0c-1.51,0.04-2.71,2.17-2.69,4.75v49.55l-19.84-19.84c-0.89-0.92-2.11-1.44-3.39-1.44
	c-2.61,0-4.72,2.11-4.72,4.72c0,1.28,0.52,2.5,1.44,3.39l25.9,25.9c0.18,0.18,0.41,0.26,0.61,0.4v26.97l-24.55-24.55
	c-0.89-0.92-2.11-1.44-3.39-1.44c-2.61,0-4.72,2.11-4.72,4.72c0,1.28,0.52,2.5,1.44,3.39l30.62,30.62c0.18,0.18,0.41,0.26,0.61,0.4
	v26.97l-26.91-26.91c-0.89-0.92-2.11-1.44-3.39-1.44c-2.61,0-4.72,2.11-4.72,4.72c0,1.28,0.52,2.5,1.44,3.39l32.98,32.98
	c0.18,0.18,0.41,0.26,0.61,0.4v76.88c-0.02,2.58,1.18,4.71,2.69,4.75c1.51,0.04,2.75-2.03,2.77-4.61c0-0.04,0-0.09,0-0.13v-76.88
	c0.2-0.14,0.43-0.22,0.61-0.4l33-32.98C178.32,157.73,178.38,154.74,176.58,152.86z"/>
</svg>
